{"title":"2011 Adelaide Christmas Pageant","uid":6812373,"size":672875456,"categoryP":"video","categoryS":"hd___tv_shows","magnet":"?xt=urn:btih:f495262321d4520b7e5308c2c4a1f6c9268c4fc4&amp;dn=2011+Adelaide+Christmas+Pageant&amp;tr=udp%3A%2F%2Ftracker.openbittorrent.com%3A80&amp;tr=udp%3A%2F%2Fopen.demonii.com%3A1337&amp;tr=udp%3A%2F%2Ftracker.coppersurfer.tk%3A6969&amp;tr=udp%3A%2F%2Fexodus.desync.com%3A6969","seeders":0,"leechers":1,"uploader":"miko-azza","files":1,"time":1321083769,"description":"The 2011 Christmas Pageant in Adelaide South Australia.\n\nRecorded from CH9 in HD 720p.\n\nI will continue to seed this for 8 hours a day until January 15th 2012.\nFor all those who missed it either live or on TV!\nSorry the quality is average, still working on tweaking settings for recorded TV.\nWhen I get it right I will upload a cleanner copy with hopefully less file size.\nBut, its watchable... more so on smaller devices where grain-i-ness isnt as prominent.\n\n==========================================================================\nVideo Settings:\n\nFormat                           : DivX\nFile size                        : 642 MiB\nDuration                         : 1h 29mn\nOverall bit rate                 : 998 Kbps\n\nVideo\nID                               : 0\nFormat                           : MPEG-4 Visual\nFormat settings, BVOP            : 1\nFormat settings, QPel            : No\nFormat settings, GMC             : No warppoints\nFormat settings, Matrix          : Default (H.263)\nMuxing mode                      : Packed bitstream\nCodec ID                         : DX50\nCodec ID/Hint                    : DivX 5\nDuration                         : 1h 29mn\nBit rate                         : 861 Kbps\nWidth                            : 720 pixels\nHeight                           : 576 pixels\nDisplay aspect ratio             : 16:9\nFrame rate                       : 25.000 fps\nStandard                         : PAL\nColor space                      : YUV\nChroma subsampling               : 4:2:0\nBit depth                        : 8 bits\nScan type                        : Progressive\nCompression mode                 : Lossy\nBits/(Pixel*Frame)               : 0.083\nStream size                      : 553 MiB (86%)\nTitle                            : Video \nWriting library                  : DivX 2151\n\nAudio\nID                               : 1\nFormat                           : MPEG Audio\nFormat version                   : Version 1\nFormat profile                   : Layer 3\nCodec ID                         : 55\nCodec ID/Hint                    : MP3\nDuration                         : 1h 29mn\nBit rate mode                    : Constant\nBit rate                         : 128 Kbps\nChannel(s)                       : 2 channels\nSampling rate                    : 48.0 KHz\nCompression mode                 : Lossy\nStream size                      : 82.3 MiB (13%)\nAlignment                        : Split accross interleaves\nInterleave, duration             : 40 ms (1.00 video frame)\nInterleave, preload duration     : 500 ms\nTitle                            : Audio ","torrent":{"xt":"urn:btih:f495262321d4520b7e5308c2c4a1f6c9268c4fc4","amp;dn":"2011+Adelaide+Christmas+Pageant","amp;tr":["udp%3A%2F%2Ftracker.openbittorrent.com%3A80","udp%3A%2F%2Fopen.demonii.com%3A1337","udp%3A%2F%2Ftracker.coppersurfer.tk%3A6969","udp%3A%2F%2Fexodus.desync.com%3A6969"],"infoHash":"f495262321d4520b7e5308c2c4a1f6c9268c4fc4","infoHashBuffer":{"type":"Buffer","data":[244,149,38,35,33,212,82,11,126,83,8,194,196,161,246,201,38,140,79,196]},"announce":[],"urlList":[]}}